<svg width="32" height="32" viewBox="0 0 32 32" fill="none" xmlns="http://www.w3.org/2000/svg">
<path fill-rule="evenodd" clip-rule="evenodd" d="M25.3333 3.89542C24.9694 3.89542 24.609 3.9671 24.2728 4.10636C23.9366 4.24563 23.6311 4.44976 23.3738 4.70709L5.56154 22.5193L4.09187 27.9081L9.48066 26.4384L27.2929 8.62621C27.5502 8.36888 27.7543 8.06338 27.8936 7.72716C28.0329 7.39094 28.1046 7.03058 28.1046 6.66665C28.1046 6.30273 28.0329 5.94237 27.8936 5.60615C27.7543 5.26993 27.5502 4.96443 27.2929 4.70709C27.0355 4.44976 26.73 4.24563 26.3938 4.10636C26.0576 3.9671 25.6972 3.89542 25.3333 3.89542ZM23.5074 2.2586C24.0863 2.01883 24.7067 1.89542 25.3333 1.89542C25.9599 1.89542 26.5803 2.01883 27.1592 2.2586C27.7381 2.49838 28.264 2.84983 28.7071 3.29288C29.1501 3.73593 29.5016 4.26191 29.7414 4.84078C29.9811 5.41966 30.1046 6.04009 30.1046 6.66665C30.1046 7.29322 29.9811 7.91365 29.7414 8.49253C29.5016 9.0714 29.1501 9.59738 28.7071 10.0404L10.7071 28.0404C10.584 28.1635 10.431 28.2523 10.2631 28.2981L2.92977 30.2981C2.58355 30.3925 2.21329 30.2942 1.95954 30.0404C1.70579 29.7867 1.60746 29.4164 1.70189 29.0702L3.70189 21.7369C3.74767 21.569 3.83649 21.4159 3.95954 21.2929L21.9595 3.29288C22.4026 2.84983 22.9286 2.49838 23.5074 2.2586Z" fill="white"/>
</svg>
