<svg width="21" height="20" viewBox="0 0 21 20" fill="none" xmlns="http://www.w3.org/2000/svg">
<circle cx="10.4252" cy="9.92529" r="9.5" fill="#AAA9A9"/>
<path fill-rule="evenodd" clip-rule="evenodd" d="M3.42185 9.16955C3.83474 9.0388 4.28096 9.25017 4.41969 9.64176L4.42113 9.64568C4.42288 9.65041 4.42615 9.65916 4.43102 9.67167C4.44075 9.6967 4.4568 9.73667 4.47962 9.78946C4.52533 9.89517 4.59781 10.0514 4.70055 10.2413C4.90682 10.6227 5.23034 11.131 5.6965 11.6371C6.61964 12.6394 8.09437 13.6309 10.3818 13.6309C12.6693 13.6309 14.144 12.6394 15.0672 11.6371C15.5333 11.131 15.8569 10.6227 16.0631 10.2413C16.1659 10.0514 16.2383 9.89517 16.284 9.78946C16.3069 9.73667 16.3229 9.6967 16.3327 9.67167C16.3375 9.65916 16.3408 9.65041 16.3425 9.64568L16.3435 9.64325C16.3436 9.64273 16.3438 9.64222 16.344 9.64171C16.4828 9.25015 16.9289 9.03881 17.3418 9.16955C17.7554 9.30053 17.979 9.72526 17.8411 10.1182L17.0922 9.88104C17.8411 10.1182 17.841 10.1186 17.8409 10.1189L17.8406 10.1198L17.8399 10.1217L17.838 10.1269L17.8324 10.1422C17.8279 10.1545 17.8217 10.171 17.8137 10.1915C17.7978 10.2324 17.7749 10.2891 17.7446 10.3593C17.6839 10.4997 17.5929 10.695 17.4675 10.9269C17.2173 11.3893 16.8254 12.006 16.2554 12.6248C15.1062 13.8725 13.2258 15.1309 10.3818 15.1309C7.53787 15.1309 5.65743 13.8725 4.50826 12.6248C3.93826 12.006 3.54635 11.3893 3.29622 10.9269C3.17076 10.695 3.0798 10.4997 3.01911 10.3593C2.98874 10.2891 2.96586 10.2324 2.94996 10.1915C2.942 10.171 2.93579 10.1545 2.93124 10.1422L2.92568 10.1269L2.92381 10.1217L2.92311 10.1198L2.92282 10.1189C2.92269 10.1186 2.92256 10.1182 3.6715 9.88104L2.92256 10.1182C2.78469 9.72526 3.00823 9.30053 3.42185 9.16955Z" fill="white"/>
</svg>
