<svg width="21" height="20" viewBox="0 0 21 20" fill="none" xmlns="http://www.w3.org/2000/svg">
<circle cx="10" cy="10" r="9.5" fill="#AAA9A9"/>
<path fill-rule="evenodd" clip-rule="evenodd" d="M10 4.73889C6.95798 4.73889 4.85771 6.41586 3.43316 7.5533C3.21091 7.73075 3.00511 7.89507 2.81474 8.03785L1.89233 8.72965L2.70763 9.54495L2.9729 9.81022C3.42181 10.7316 4.23059 12.0045 5.3278 13.0851C6.48466 14.2244 8.079 15.261 10 15.261C11.921 15.261 13.5154 14.2244 14.6722 13.0851C15.7695 12.0045 16.5782 10.7316 17.0271 9.81022L17.2924 9.54495L18.1077 8.72965L17.1853 8.03785C16.9949 7.89507 16.7891 7.73075 16.5669 7.5533C15.1423 6.41586 13.0421 4.73889 10 4.73889ZM6.73117 11.6601C5.85282 10.7951 5.18623 9.76214 4.81282 9.01906C6.23939 7.89707 7.74172 6.73889 10 6.73889C12.2583 6.73889 13.7607 7.89707 15.1872 9.01906C14.8138 9.76214 14.1472 10.7951 13.2689 11.6601C12.2952 12.619 11.178 13.261 10 13.261C8.82209 13.261 7.70484 12.619 6.73117 11.6601ZM10 12.7115C11.4976 12.7115 12.7116 11.4975 12.7116 9.99995C12.7116 8.50238 11.4976 7.28836 10 7.28836C8.50247 7.28836 7.28845 8.50238 7.28845 9.99995C7.28845 11.4975 8.50247 12.7115 10 12.7115Z" fill="white"/>
</svg>
